<!-- <?xml version="1.0" encoding="utf-8"?> -->
<!-- Svg Vector Icons : http://www.onlinewebfonts.com/icon -->
<!-- <!DOCTYPE svg PUBLIC "-//W3C//DTD SVG 1.1//EN"
"http://www.w3.org/Graphics/SVG/1.1/DTD/svg11.dtd"> -->
<svg version="1.1" xmlns="http://www.w3.org/2000/svg" xmlns:xlink="http://www.w3.org/1999/xlink"
	x="0px" y="0px" viewBox="0 0 256 256" enable-background="new 0 0 256 256" xml:space="preserve">
<metadata> Svg Vector Icons : http://www.onlinewebfonts.com/icon </metadata>
<g><g><path fill="currentColor" d="M128.1,129.8c19.1,0,34.7-15.5,34.7-34.6c0-19.1-15.5-34.6-34.7-34.6C109,60.6,93.5,76,93.5,95.2S109,129.8,128.1,129.8z M158.8,135.2l-2.8,0c-1,0-2.4,0.4-3.3,0.8c0,0-2.2,1.3-4.2,2.1c-6,2.6-12.9,4.1-20.2,4.1c-7.3,0-14.1-1.5-20.2-4c-2-0.9-4.3-2.2-4.3-2.2c-0.8-0.5-2.3-0.8-3.3-0.8l-2.7,0c-11.1,1.4-22.7,11.2-26,21.9c0,0-3.5,7.2-4,21.2c0,1.1,0,0,0,0c0,1.8,1.4,4.2,3.3,5.2c0,0,18.8,12.1,57.1,12.1c38.3,0,57.1-12.1,57.1-12.1c1.9-1,3.4-3.6,3.3-5.2c0,0,0,1.1,0,0c-0.5-14-3.9-20.9-3.9-20.9C181.6,146.7,169.8,136.8,158.8,135.2z"/><path fill="currentColor" d="M159.6,126.9c3.7-2.9,8.1-5,12.3-5.6l1.9,0c1,0,2.5,0.4,3.3,0.8c0,0,1.6,0.9,3.2,1.6c4.9,2.1,10.5,3.3,16.4,3.3c5.9,0,11.6-1.2,16.5-3.3c1.6-0.7,3.2-1.6,3.2-1.6c0.8-0.5,2.3-0.8,3.3-0.8l2,0c9,1.3,18.6,9.3,21.1,18.1c0,0,2.8,5.6,3.2,17c0,0.9,0,0,0,0c0,1-1.5,3.5-3.3,4.5c0,0-14.7,9.5-45.9,9.5c-0.5,0-1,0-1.5,0c0.1-1.3,0.2-2.5,0.2-3.8C195.4,145.9,179.7,129,159.6,126.9L159.6,126.9z M196.7,116.9c15.6,0,28.2-12.6,28.2-28.2s-12.6-28.2-28.2-28.2s-28.2,12.6-28.2,28.2S181.1,116.9,196.7,116.9z"/><path fill="currentColor" d="M96.4,126.9c-3.7-2.9-8.1-5-12.3-5.6l-1.9,0c-1,0-2.5,0.4-3.3,0.8c0,0-1.6,0.9-3.2,1.6c-4.9,2.1-10.5,3.3-16.4,3.3c-5.9,0-11.6-1.2-16.5-3.3c-1.6-0.7-3.2-1.6-3.2-1.6c-0.8-0.5-2.3-0.8-3.3-0.8l-2,0c-9,1.3-18.6,9.3-21.1,18.1c0,0-2.8,5.6-3.2,17c0,0.9,0,0,0,0c0,1,1.5,3.5,3.3,4.5c0,0,14.7,9.5,45.9,9.5c0.5,0,1,0,1.5,0c-0.1-1.3-0.2-2.5-0.2-3.8C60.6,145.9,76.3,129,96.4,126.9L96.4,126.9z M59.3,116.9c-15.6,0-28.2-12.6-28.2-28.2s12.6-28.2,28.2-28.2s28.2,12.6,28.2,28.2S74.9,116.9,59.3,116.9z"/></g></g>
</svg>